<?xml version="1.0" standalone="no"?>
<!DOCTYPE svg PUBLIC "-//W3C//DTD SVG 20010904//EN"
 "http://www.w3.org/TR/2001/REC-SVG-20010904/DTD/svg10.dtd">
<svg version="1.0" xmlns="http://www.w3.org/2000/svg"
 width="4088.000000pt" height="4083.000000pt" viewBox="0 0 4088.000000 4083.000000"
 preserveAspectRatio="xMidYMid meet">

<g transform="translate(0.000000,4083.000000) scale(0.100000,-0.100000)"
fill="#000000" stroke="none">
<path d="M19620 40799 c-1039 -43 -2093 -167 -3130 -370 -3249 -636 -6144
-1975 -8750 -4047 -2976 -2367 -5125 -5317 -6433 -8832 -721 -1936 -1124
-3804 -1242 -5760 -9 -146 -23 -301 -31 -345 -11 -65 -14 -252 -14 -997 0
-872 1 -922 20 -1033 12 -69 24 -210 30 -344 14 -307 26 -481 56 -776 167
-1669 517 -3224 1046 -4645 419 -1127 955 -2288 1521 -3295 1877 -3341 4485
-5925 7817 -7747 1383 -757 3057 -1449 4494 -1859 1335 -381 2866 -628 4276
-689 139 -6 273 -17 310 -25 54 -13 194 -15 860 -15 741 1 803 2 905 20 67 12
203 23 350 30 334 14 522 27 800 56 2974 302 5668 1172 8175 2637 1045 611
2126 1386 3075 2202 2977 2563 5036 5703 6206 9465 476 1528 759 3066 854
4630 8 140 22 299 30 353 22 142 22 1854 1 1967 -20 104 -34 275 -46 550 -26
628 -166 1699 -329 2525 -310 1567 -767 2962 -1448 4415 -1423 3035 -3361
5534 -5790 7467 -1413 1125 -3007 2068 -4758 2818 -795 340 -1707 671 -2420
879 -1491 433 -3160 696 -4875 766 -278 11 -1280 11 -1560 -1z m1380 -14303
c1425 -143 2698 -735 3714 -1726 1017 -993 1650 -2284 1805 -3685 57 -506 48
-1015 -25 -1525 -281 -1964 -1521 -3684 -3309 -4590 -1208 -612 -2572 -805
-3895 -549 -1365 264 -2606 993 -3515 2064 -1055 1244 -1568 2841 -1429 4455
107 1245 587 2402 1407 3390 150 180 568 600 742 744 389 323 746 560 1170
777 715 366 1495 589 2270 649 77 6 160 12 185 14 110 9 735 -4 880 -18z
m-9379 -7407 c70 -35 84 -70 124 -289 206 -1151 670 -2293 1339 -3290 473
-706 1060 -1356 1716 -1899 1165 -965 2571 -1617 4055 -1880 786 -139 1603
-175 2385 -106 1804 161 3514 870 4895 2029 380 319 804 745 1124 1130 430
516 816 1114 1120 1731 362 734 640 1573 761 2294 36 214 52 254 113 282 41
18 134 19 4205 19 3515 0 4168 -2 4196 -14 18 -7 43 -26 56 -42 21 -28 22 -35
17 -144 -11 -238 -98 -921 -178 -1400 -175 -1056 -437 -2047 -767 -2910 -1230
-3214 -3055 -5784 -5477 -7712 -1789 -1423 -3960 -2516 -6384 -3214 -1898
-546 -3988 -714 -6191 -499 -3613 354 -6822 1728 -9590 4107 -1634 1404 -2922
2978 -3908 4772 -908 1655 -1572 3566 -1896 5466 -82 475 -184 1260 -188 1440
-2 83 6 106 45 128 30 16 262 17 4132 23 2255 3 4136 3 4180 1 51 -2 92 -10
116 -23z"/>
</g>
</svg>
